<svg width="52px" height="37px" viewBox="0 0 52 37"><g fill="none" fill-rule="evenodd" transform="translate(-373.000000, -681.000000)"><g transform="translate(347.000000, 648.000000)"><g transform="translate(24.000000, 26.000000)"><g><path d="M8.625,42.75 C5.523,42.75 3,40.227 3,37.125 L3,13.125 C3,10.023 5.523,7.5 8.625,7.5 L47.625,7.5 C50.727,7.5 53.25,10.023 53.25,13.125 L53.25,37.125 C53.25,40.227 50.727,42.75 47.625,42.75 L11.25,42.75 L10.5,42.75 L8.625,42.75 L8.625,42.75 Z" stroke="#EF3124"></path><rect fill="#EF3124" x="7.5" y="33" width="22.5" height="2.25"></rect><path d="M8.69175,19.77525 C8.751,19.79475 8.811,19.75575 8.8305,19.69575 C8.85,19.656 9.2865,18.38625 9.3465,18.2475 L12.4215,18.2475 C12.46125,18.38625 12.91725,19.6365 12.9375,19.69575 C12.97725,19.755 13.0365,19.79475 13.0965,19.77525 C13.15575,19.75575 14.2275,19.31925 14.307,19.299 C14.36625,19.25925 14.3865,19.17975 14.36625,19.14 C14.307,18.9615 12.2235,13.188 12.144,12.95025 C11.92575,12.35475 11.66775,11.7795 10.87425,11.7795 L10.87425,11.7795 C10.08075,11.7795 9.82275,12.35475 9.64425,12.95025 C9.54525,13.248 7.5015,18.92175 7.422,19.14 C7.38225,19.19925 7.422,19.27875 7.48125,19.299 C7.54125,19.31925 8.6325,19.75575 8.69175,19.77525 L8.69175,19.77525 Z M10.87425,13.665 L11.94525,16.839 L9.84225,16.839 L10.87425,13.665 L10.87425,13.665 Z" fill="#EF3124"></path><path d="M14.4375,23.1375 L14.4375,21.8625 C14.4375,21.80625 14.38125,21.75 14.325,21.75 L7.425,21.75 C7.36875,21.75 7.3125,21.80625 7.3125,21.8625 L7.3125,23.1375 C7.3125,23.19375 7.36875,23.25 7.425,23.25 L14.325,23.25 C14.38125,23.25 14.4375,23.19375 14.4375,23.1375 L14.4375,23.1375 Z" fill="#EF3124"></path></g></g></g></g></svg>